<svg width="32" height="32" viewBox="0 0 32 32" fill="none" xmlns="http://www.w3.org/2000/svg">
<rect width="32" height="32" rx="16" fill="#FFEA03"/>
<path d="M22.0793 15.4457C22.0793 15.9275 22.0236 16.3993 21.912 16.8609C21.8054 17.3174 21.6406 17.7308 21.4174 18.1011C21.1942 18.4663 20.9152 18.758 20.5804 18.9761C20.2507 19.1942 19.8601 19.3033 19.4087 19.3033C18.937 19.3033 18.5616 19.1663 18.2826 18.8924C18.0036 18.6185 17.8362 18.2938 17.7804 17.9185H17.712C17.5192 18.3192 17.2351 18.6514 16.8598 18.9152C16.4895 19.1739 16.033 19.3033 15.4902 19.3033C14.6989 19.3033 14.0877 19.042 13.6565 18.5196C13.2304 17.992 13.0174 17.292 13.0174 16.4196C13.0174 15.7399 13.1518 15.1388 13.4207 14.6163C13.6946 14.0888 14.0775 13.6754 14.5696 13.3761C15.0667 13.0717 15.6525 12.9196 16.3272 12.9196C16.7786 12.9196 17.2174 12.9576 17.6435 13.0337C18.0696 13.1098 18.4094 13.1935 18.663 13.2848L18.5109 16.3511C18.5058 16.5388 18.5007 16.6833 18.4957 16.7848C18.4906 16.8812 18.488 16.9572 18.488 17.013C18.488 17.5609 18.5844 17.9312 18.7772 18.1239C18.975 18.3116 19.2134 18.4054 19.4924 18.4054C19.8322 18.4054 20.1163 18.2736 20.3446 18.0098C20.5779 17.7409 20.7554 17.3833 20.8772 16.937C20.9989 16.4855 21.0598 15.9859 21.0598 15.438C21.0598 14.4692 20.8645 13.6424 20.4739 12.9576C20.0833 12.2728 19.5431 11.7504 18.8533 11.3902C18.1685 11.0301 17.3797 10.85 16.487 10.85C15.5993 10.85 14.8105 10.9895 14.1207 11.2685C13.4359 11.5475 12.8551 11.9431 12.3783 12.4554C11.9065 12.9627 11.5489 13.5663 11.3054 14.2663C11.062 14.9663 10.9402 15.7399 10.9402 16.587C10.9402 17.6217 11.1228 18.5018 11.488 19.2272C11.8583 19.9525 12.3986 20.5054 13.1087 20.8859C13.8239 21.2612 14.6938 21.4489 15.7185 21.4489C16.3373 21.4489 16.9333 21.3804 17.5065 21.2435C18.0797 21.1065 18.592 20.9518 19.0435 20.7793V21.7685C18.5971 21.9562 18.0975 22.1083 17.5446 22.225C16.9917 22.3467 16.383 22.4076 15.7185 22.4076C14.496 22.4076 13.4511 22.1768 12.5837 21.7152C11.7163 21.2587 11.0518 20.5993 10.5902 19.737C10.1286 18.8746 9.89783 17.8399 9.89783 16.6326C9.89783 15.6536 10.0475 14.7533 10.3467 13.9315C10.6511 13.1098 11.0873 12.3971 11.6554 11.7935C12.2286 11.1899 12.921 10.7232 13.7326 10.3935C14.5493 10.0587 15.4674 9.8913 16.487 9.8913C17.5775 9.8913 18.5413 10.117 19.3783 10.5685C20.2203 11.0149 20.8797 11.654 21.3565 12.4859C21.8384 13.3127 22.0793 14.2993 22.0793 15.4457ZM14.1511 16.45C14.1511 17.1246 14.2855 17.6192 14.5543 17.9337C14.8232 18.2482 15.196 18.4054 15.6728 18.4054C16.2612 18.4054 16.6924 18.1848 16.9663 17.7435C17.2453 17.3022 17.4051 16.7188 17.4457 15.9935L17.537 14.0076C17.3899 13.962 17.2098 13.9239 16.9967 13.8935C16.7888 13.858 16.5707 13.8402 16.3424 13.8402C15.8199 13.8402 15.3964 13.9645 15.0717 14.213C14.7522 14.4616 14.5188 14.7837 14.3717 15.1793C14.2246 15.575 14.1511 15.9986 14.1511 16.45Z" fill="#111111"/>
</svg>
