<svg width="8" height="7" viewBox="0 0 8 7" fill="none" xmlns="http://www.w3.org/2000/svg">
<path d="M4.21978 4.53631L4.98586 3.77023L7.15155 5.93592L6.38547 6.702L4.21978 4.53631ZM5.56232 2.66824C6.25942 2.66824 6.82648 2.10117 6.82648 1.40407C6.82648 1.19458 6.76869 0.999542 6.6784 0.826171L5.70318 1.80138L5.16501 1.26321L6.14022 0.287998C5.96685 0.197701 5.77181 0.13991 5.56232 0.13991C4.86522 0.13991 4.29816 0.706978 4.29816 1.40407C4.29816 1.55216 4.32705 1.69303 4.37401 1.82305L3.70581 2.49126L3.06289 1.84834L3.31933 1.59189L2.81006 1.08262L3.57578 0.316893C3.37261 0.113976 3.0972 0 2.81006 0C2.52291 0 2.2475 0.113976 2.04433 0.316893L0.765722 1.5955L1.275 2.10478H0.256445L0 2.36123L1.27861 3.63984L1.53506 3.38339V2.36123L2.04433 2.8705L2.30078 2.61406L2.9437 3.25698L0.26728 5.93339L1.033 6.69911L5.14334 2.59239C5.27337 2.63934 5.41423 2.66824 5.56232 2.66824Z" fill="#FAFDF6"/>
</svg>
