<svg width="40" height="40" viewBox="0 0 40 40" fill="none" xmlns="http://www.w3.org/2000/svg">
<path d="M20.0013 33.3337C12.6375 33.3337 6.66797 27.3641 6.66797 20.0003C6.66797 12.6365 12.6375 6.66699 20.0013 6.66699C27.3651 6.66699 33.3346 12.6365 33.3346 20.0003C33.3346 23.5365 31.9299 26.9279 29.4294 29.4284C26.9289 31.9289 23.5375 33.3337 20.0013 33.3337Z" fill="white"/>
<path fill-rule="evenodd" clip-rule="evenodd" d="M20.0007 3.3335C10.7959 3.3335 3.33398 10.7954 3.33398 20.0002C3.33398 29.2049 10.7959 36.6668 20.0007 36.6668C29.2054 36.6668 36.6673 29.2049 36.6673 20.0002C36.6673 15.5799 34.9114 11.3407 31.7858 8.21505C28.6602 5.08944 24.4209 3.3335 20.0007 3.3335ZM20.0007 33.3335C12.6369 33.3335 6.66732 27.364 6.66732 20.0002C6.66732 12.6364 12.6369 6.66683 20.0007 6.66683C27.3644 6.66683 33.334 12.6364 33.334 20.0002C33.334 23.5364 31.9292 26.9278 29.4287 29.4283C26.9283 31.9287 23.5369 33.3335 20.0007 33.3335ZM25.2006 14.1502C25.5246 13.8326 26.0432 13.8326 26.3672 14.1502L27.2006 15.0336C27.3583 15.19 27.4471 15.403 27.4471 15.6252C27.4471 15.8474 27.3583 16.0604 27.2006 16.2169L17.8339 25.5836C17.6827 25.7447 17.4715 25.8361 17.2506 25.8361C17.0296 25.8361 16.8184 25.7447 16.6672 25.5836L12.7506 21.6336C12.5928 21.4771 12.5041 21.2641 12.5041 21.0419C12.5041 20.8197 12.5928 20.6067 12.7506 20.4502L13.6339 19.5669C13.7851 19.4058 13.9962 19.3144 14.2172 19.3144C14.4382 19.3144 14.6493 19.4058 14.8006 19.5669L17.3006 22.0502L25.2006 14.1502Z" fill="#27B962"/>
</svg>
