<svg width="256" height="256" viewBox="0 0 256 256" fill="none" xmlns="http://www.w3.org/2000/svg">
<rect width="256" height="256" rx="128" fill="#FFEA03"/>
<path d="M178.438 121.375C178.438 125.333 177.979 129.208 177.062 133C176.188 136.75 174.833 140.146 173 143.188C171.167 146.188 168.875 148.583 166.125 150.375C163.417 152.167 160.208 153.062 156.5 153.062C152.625 153.062 149.542 151.938 147.25 149.688C144.958 147.438 143.583 144.771 143.125 141.688H142.562C140.979 144.979 138.646 147.708 135.562 149.875C132.521 152 128.771 153.062 124.312 153.062C117.812 153.062 112.792 150.917 109.25 146.625C105.75 142.292 104 136.542 104 129.375C104 123.792 105.104 118.854 107.312 114.562C109.562 110.229 112.708 106.833 116.75 104.375C120.833 101.875 125.646 100.625 131.188 100.625C134.896 100.625 138.5 100.938 142 101.562C145.5 102.188 148.292 102.875 150.375 103.625L149.125 128.812C149.083 130.354 149.042 131.542 149 132.375C148.958 133.167 148.938 133.792 148.938 134.25C148.938 138.75 149.729 141.792 151.312 143.375C152.938 144.917 154.896 145.688 157.188 145.688C159.979 145.688 162.312 144.604 164.188 142.438C166.104 140.229 167.562 137.292 168.562 133.625C169.562 129.917 170.062 125.812 170.062 121.312C170.062 113.354 168.458 106.562 165.25 100.938C162.042 95.3125 157.604 91.0208 151.938 88.0625C146.312 85.1042 139.833 83.625 132.5 83.625C125.208 83.625 118.729 84.7708 113.062 87.0625C107.438 89.3542 102.667 92.6042 98.75 96.8125C94.875 100.979 91.9375 105.938 89.9375 111.688C87.9375 117.438 86.9375 123.792 86.9375 130.75C86.9375 139.25 88.4375 146.479 91.4375 152.438C94.4792 158.396 98.9167 162.938 104.75 166.062C110.625 169.146 117.771 170.688 126.188 170.688C131.271 170.688 136.167 170.125 140.875 169C145.583 167.875 149.792 166.604 153.5 165.188V173.312C149.833 174.854 145.729 176.104 141.188 177.062C136.646 178.062 131.646 178.562 126.188 178.562C116.146 178.562 107.562 176.667 100.438 172.875C93.3125 169.125 87.8542 163.708 84.0625 156.625C80.2708 149.542 78.375 141.042 78.375 131.125C78.375 123.083 79.6042 115.688 82.0625 108.938C84.5625 102.188 88.1458 96.3333 92.8125 91.375C97.5208 86.4167 103.208 82.5833 109.875 79.875C116.583 77.125 124.125 75.75 132.5 75.75C141.458 75.75 149.375 77.6042 156.25 81.3125C163.167 84.9792 168.583 90.2292 172.5 97.0625C176.458 103.854 178.438 111.958 178.438 121.375ZM113.312 129.625C113.312 135.167 114.417 139.229 116.625 141.812C118.833 144.396 121.896 145.688 125.812 145.688C130.646 145.688 134.188 143.875 136.438 140.25C138.729 136.625 140.042 131.833 140.375 125.875L141.125 109.562C139.917 109.188 138.438 108.875 136.688 108.625C134.979 108.333 133.188 108.188 131.312 108.188C127.021 108.188 123.542 109.208 120.875 111.25C118.25 113.292 116.333 115.938 115.125 119.188C113.917 122.438 113.312 125.917 113.312 129.625Z" fill="#111111"/>
</svg>
