<svg width="25" height="25" viewBox="0 0 25 25" fill="none" xmlns="http://www.w3.org/2000/svg">
<path d="M5.19995 1H20.7C23.05 1 24.95 2.9 24.95 5.25V20.15C24.95 22.5 23.05 24.4 20.7 24.4H5.19995C2.84995 24.4 0.949951 22.5 0.949951 20.15V5.25C0.949951 2.9 2.84995 1 5.19995 1Z" fill="#470137"/>
<path d="M13.57 7.15L10.57 12.1L13.77 17.35C13.79 17.39 13.8 17.43 13.79 17.47C13.78 17.51 13.74 17.48 13.68 17.49H11.39C11.23 17.49 11.12 17.48 11.05 17.38C10.84 16.96 10.62 16.55 10.41 16.13C10.2 15.72 9.96997 15.3 9.72997 14.87C9.48997 14.44 9.24997 14.01 9.00997 13.57H8.98997C8.77997 14 8.54997 14.43 8.31997 14.86C8.08997 15.29 7.85997 15.72 7.63997 16.14C7.40997 16.56 7.17997 16.99 6.94997 17.4C6.90997 17.5 6.82997 17.51 6.71997 17.51H4.51997C4.47997 17.51 4.44997 17.53 4.44997 17.48C4.43997 17.44 4.44997 17.4 4.46997 17.37L7.57997 12.27L4.54997 7.14C4.51997 7.1 4.50997 7.06 4.52997 7.04C4.54997 7.01 4.58997 7 4.62997 7H6.89997C6.94997 7 6.99997 7.01 7.03997 7.02C7.07997 7.04 7.10997 7.07 7.13997 7.11C7.32997 7.54 7.54997 7.97 7.77997 8.4C8.01997 8.83 8.24997 9.25 8.49997 9.67C8.73997 10.09 8.95997 10.51 9.16997 10.94H9.18997C9.39997 10.5 9.61997 10.07 9.83997 9.65C10.06 9.23 10.29 8.81 10.52 8.39C10.75 7.97 10.97 7.54 11.19 7.13C11.2 7.09 11.22 7.05 11.25 7.03C11.29 7.01 11.33 7 11.38 7.01H13.49C13.54 7 13.59 7.03 13.6 7.08C13.61 7.09 13.59 7.13 13.57 7.15Z" fill="#FF61F6"/>
<path d="M18.1899 17.7C17.4499 17.71 16.7099 17.56 16.0399 17.25C15.4099 16.96 14.8899 16.48 14.5299 15.89C14.1599 15.28 13.9799 14.52 13.9799 13.61C13.9699 12.87 14.1599 12.14 14.5299 11.5C14.9099 10.85 15.4599 10.31 16.1199 9.95C16.8199 9.56 17.6599 9.37 18.6499 9.37C18.6999 9.37 18.7699 9.37 18.8599 9.38C18.9499 9.39 19.0499 9.39 19.1699 9.4V6.24C19.1699 6.17 19.1999 6.13 19.2699 6.13H21.2999C21.3499 6.12 21.3899 6.16 21.3999 6.2C21.3999 6.21 21.3999 6.22 21.3999 6.22V15.74C21.3999 15.92 21.4099 16.12 21.4199 16.34C21.4399 16.55 21.4499 16.75 21.4599 16.92C21.4599 16.99 21.4299 17.05 21.3599 17.08C20.8399 17.3 20.2899 17.46 19.7299 17.56C19.2199 17.65 18.7099 17.7 18.1899 17.7ZM19.1699 15.7V11.3C19.0799 11.28 18.9899 11.26 18.8999 11.25C18.7899 11.24 18.6799 11.23 18.5699 11.23C18.1799 11.23 17.7899 11.31 17.4399 11.49C17.0999 11.66 16.8099 11.91 16.5899 12.23C16.3699 12.55 16.2599 12.98 16.2599 13.5C16.2499 13.85 16.3099 14.2 16.4299 14.53C16.5299 14.8 16.6799 15.04 16.8799 15.24C17.0699 15.42 17.2999 15.56 17.5599 15.64C17.8299 15.73 18.1099 15.77 18.3899 15.77C18.5399 15.77 18.6799 15.76 18.8099 15.75C18.9399 15.76 19.0499 15.74 19.1699 15.7Z" fill="#FF61F6"/>
</svg>
